HIERARCHY
ROOT root
{
	OFFSET 0.000000 0.000000 0.000000
	CHANNELS 6 Xposition Yposition Zposition Zrotation Yrotation Xrotation
	JOINT lhip
	{
		OFFSET 0.058581 -0.082280 -0.017664
		CHANNELS 3 Zrotation Yrotation Xrotation
		JOINT lknee
		{
			OFFSET 0.043451 -0.386469 0.008037
			CHANNELS 3 Zrotation Yrotation Xrotation
			JOINT lankle
			{
				OFFSET -0.014790 -0.426874 -0.037428
				CHANNELS 3 Zrotation Yrotation Xrotation
				JOINT ltoe
				{
					OFFSET 0.041054 -0.060286 0.122042
					CHANNELS 3 Zrotation Yrotation Xrotation
					End Site
					{
						OFFSET 0.000000 0.000000 0.000000
					}
				}
			}
		}
	}
	JOINT rhip
	{
		OFFSET -0.060310 -0.090513 -0.013543
		CHANNELS 3 Zrotation Yrotation Xrotation
		JOINT rknee
		{
			OFFSET -0.043257 -0.383688 -0.004843
			CHANNELS 3 Zrotation Yrotation Xrotation
			JOINT rankle
			{
				OFFSET 0.019056 -0.420046 -0.034562
				CHANNELS 3 Zrotation Yrotation Xrotation
				JOINT rtoe
				{
					OFFSET -0.034840 -0.062106 0.130323
					CHANNELS 3 Zrotation Yrotation Xrotation
					End Site
					{
						OFFSET 0.000000 0.000000 0.000000
					}
				}
			}
		}
	}
	JOINT lowerback
	{
		OFFSET 0.004439 0.124404 -0.038385
		CHANNELS 3 Zrotation Yrotation Xrotation
		JOINT upperback
		{
			OFFSET 0.004488 0.137956 0.026820
			CHANNELS 3 Zrotation Yrotation Xrotation
			JOINT chest
			{
				OFFSET -0.002265 0.056032 0.002855
				CHANNELS 3 Zrotation Yrotation Xrotation
				JOINT lowerneck
				{
					OFFSET -0.013390 0.211636 -0.033468
					CHANNELS 3 Zrotation Yrotation Xrotation
					JOINT upperneck
					{
						OFFSET 0.010113 0.088937 0.050410
						CHANNELS 3 Zrotation Yrotation Xrotation
						End Site
						{
							OFFSET 0.000000 0.000000 0.000000
						}
					}
				}
				JOINT lclavicle
				{
					OFFSET 0.071702 0.114000 -0.018898
					CHANNELS 3 Zrotation Yrotation Xrotation
					JOINT lshoulder
					{
						OFFSET 0.122921 0.045205 -0.019046
						CHANNELS 3 Zrotation Yrotation Xrotation
						JOINT lelbow
						{
							OFFSET 0.255332 -0.015649 -0.022946
							CHANNELS 3 Zrotation Yrotation Xrotation
							JOINT lwrist
							{
								OFFSET 0.265709 0.012698 -0.007375
								CHANNELS 3 Zrotation Yrotation Xrotation
								End Site
								{
									OFFSET 0.000000 0.000000 0.000000
								}
							}
						}
					}
				}
				JOINT rclavicle
				{
					OFFSET -0.082954 0.112472 -0.023707
					CHANNELS 3 Zrotation Yrotation Xrotation
					JOINT rshoulder
					{
						OFFSET -0.113228 0.046853 -0.008472
						CHANNELS 3 Zrotation Yrotation Xrotation
						JOINT relbow
						{
							OFFSET -0.260127 -0.014369 -0.031269
							CHANNELS 3 Zrotation Yrotation Xrotation
							JOINT rwrist
							{
								OFFSET -0.269108 0.006794 -0.006027
								CHANNELS 3 Zrotation Yrotation Xrotation
								End Site
								{
									OFFSET 0.000000 0.000000 0.000000
								}
							}
						}
					}
				}
			}
		}
	}
}
MOTION
Frames: 11
Frame Time: 0.033333
0.106367 0.512672 0.986476 -7.028824 -1.384361 85.473289 -7.683419 2.818206 10.130140 -3.723841 -9.262546 10.986694 1.108004 8.354035 -21.448760 0.000000 -0.000000 0.000000 3.197018 2.699837 -22.890026 -2.593467 -3.752455 3.212104 8.791286 -6.517376 -4.484067 0.000000 -0.000000 0.000000 -2.643505 -6.423881 14.321471 0.908942 -5.642857 -2.075239 -0.125765 -6.055685 2.530137 -3.496816 -7.396841 -13.470563 1.862737 -10.749658 -11.108588 -24.758241 5.635334 1.852615 -51.724333 -14.463584 11.813037 14.960013 -50.746835 -5.075894 19.913480 -27.251983 -28.826707 26.267423 -4.044525 -4.540459 59.547202 -6.511347 16.506873 -12.964451 21.924947 -5.851787 -4.439521 12.753068 -3.425909 
0.103692 0.478554 0.981744 -6.194388 -1.067244 85.440781 -7.096475 3.288991 11.893106 -3.966164 -10.019756 12.519746 1.005769 8.331954 -22.432145 0.000000 -0.000000 0.000000 3.836444 2.731477 -23.537026 -2.315146 -4.651970 5.365692 8.895982 -6.676826 -5.054922 0.000000 -0.000000 0.000000 -2.197146 -6.830162 14.064709 0.909783 -5.296859 -1.789060 -0.334405 -6.064134 2.525442 -3.221872 -8.112763 -13.462376 1.904078 -11.595562 -11.015770 -24.995984 5.368370 1.414622 -51.325409 -15.550388 11.896914 14.846511 -51.741039 -4.757134 18.354763 -28.032618 -28.232248 26.300368 -4.152535 -5.012336 59.386102 -6.986692 15.990727 -12.961501 20.365401 -5.656458 -3.664810 12.997815 -2.572091 
0.100736 0.443768 0.977939 -5.492909 -0.923051 85.758628 -6.705729 3.562651 13.153287 -4.357466 -10.404593 14.474211 0.812309 8.545019 -22.514408 0.000000 -0.000000 0.000000 4.076401 3.246913 -24.915346 -1.737531 -4.499688 12.323518 8.416557 -6.609251 -5.189073 0.000000 -0.000000 0.000000 -2.076061 -7.440848 13.304888 1.054091 -4.843997 -1.352604 -0.523356 -5.967746 2.348660 -3.055452 -8.982402 -13.356275 1.983977 -12.164380 -11.602497 -25.441523 5.216562 1.250977 -50.986994 -15.691745 12.187766 15.550357 -52.701247 -5.107495 18.671816 -27.928893 -27.871049 26.433667 -3.897400 -5.034982 58.790225 -7.481855 15.646911 -12.731839 19.404843 -5.674426 -3.426315 12.593535 -2.278547 
0.097048 0.406061 0.975052 -4.374604 -0.562851 86.550002 -5.946947 2.987177 13.967529 -4.892772 -10.707814 16.719985 0.268373 8.015190 -21.343134 0.000000 -0.000000 0.000000 4.249311 3.822288 -25.443248 -1.427243 -5.155421 15.739788 6.594544 -6.408424 -3.600393 0.000000 -0.000000 0.000000 -1.523623 -8.046024 11.807844 1.302865 -4.746036 -1.026194 -0.779674 -6.028810 1.909181 -3.183232 -9.896836 -12.614753 2.129967 -12.371716 -12.025879 -26.078325 5.597255 1.315364 -50.875407 -15.093754 12.518376 15.822424 -53.104099 -5.036365 18.010712 -27.871307 -27.836916 26.608640 -4.037503 -4.943569 58.168591 -7.850377 15.411064 -12.888826 18.282105 -5.475076 -3.010723 12.294583 -2.297439 
0.093347 0.367592 0.975504 -3.933424 -0.179867 86.993466 -5.264254 2.575297 14.303840 -5.578412 -10.920230 20.443261 -0.648527 7.559380 -18.308927 0.000000 -0.000000 0.000000 4.218277 3.846323 -25.741674 -1.249487 -4.978497 19.376630 6.024381 -8.348905 0.145960 0.000000 -0.000000 0.000000 -0.784861 -8.336642 10.052117 1.464811 -4.439395 -0.241413 -1.162716 -6.140840 1.914266 -3.100709 -10.984360 -12.678543 1.961510 -12.130378 -12.007121 -27.197655 6.037655 1.741828 -50.483964 -14.605489 12.343583 15.468994 -52.543018 -4.951755 17.686932 -27.560693 -27.654856 27.098260 -3.970804 -4.722554 56.977330 -7.517169 15.430007 -12.408742 17.363381 -5.952219 -2.885414 12.096512 -2.469261 
0.089094 0.327794 0.978032 -4.395272 0.247675 86.913879 -4.555550 2.339956 13.782093 -6.817894 -10.325194 26.046144 -2.117144 6.175981 -12.772579 0.000000 -0.000000 0.000000 4.446241 3.874522 -24.961617 -0.285315 -5.240852 23.559772 4.200184 -7.482432 -2.936845 0.000000 -0.000000 0.000000 0.020102 -8.247676 9.194387 1.596681 -3.995790 0.089340 -1.477084 -5.931102 1.543456 -3.440902 -11.370868 -12.513445 1.468837 -12.586389 -11.728756 -27.897358 6.642707 1.738928 -50.875471 -12.766382 12.356932 14.882500 -51.207011 -4.216146 16.807430 -26.787016 -27.378170 27.302646 -4.066704 -4.421578 56.049432 -7.282435 14.566145 -11.890089 17.380981 -5.452206 -2.967219 11.755290 -2.430769 
0.084725 0.290476 0.980820 -4.659752 0.547657 86.682730 -4.095734 0.782133 11.310173 -8.987999 -9.572999 34.126118 -4.059642 4.557479 -5.121398 0.000000 -0.000000 0.000000 4.828327 4.039411 -23.141094 0.408056 -4.811047 25.980038 2.115799 -6.889281 -5.839765 0.000000 -0.000000 0.000000 0.587529 -7.656545 8.847593 1.851469 -4.088616 0.256280 -1.833899 -5.840967 1.204730 -3.674014 -11.429074 -12.842972 0.890483 -13.201158 -10.596306 -27.893319 7.189683 1.825876 -51.601834 -10.856062 12.465768 14.147782 -49.090075 -2.767446 16.009045 -25.617676 -27.671798 27.411070 -3.926204 -4.245389 56.073520 -6.504778 14.096446 -12.383429 16.853146 -4.971050 -2.914014 11.821344 -3.304440 
0.080405 0.255970 0.983043 -4.675634 0.614584 86.329647 -3.812609 -0.280992 7.440286 -11.120359 -9.116022 43.573539 -5.058478 2.701655 0.965919 0.000000 -0.000000 0.000000 5.520941 3.947041 -21.166329 0.387429 -3.728502 27.967714 0.082156 -6.898209 -8.655674 0.000000 -0.000000 0.000000 0.614201 -6.761520 8.854661 2.226721 -4.501389 0.656049 -1.847860 -5.850152 0.946917 -4.168382 -12.084766 -12.442710 1.337722 -13.297242 -11.367452 -27.729146 6.919088 2.260125 -51.807769 -8.894964 12.538756 12.846942 -46.834234 -0.802440 15.938192 -23.876845 -28.625809 27.404867 -3.415067 -3.811445 55.378587 -6.279152 13.890536 -11.875357 19.641355 -3.904652 -3.394509 10.939077 -5.477040 
0.076160 0.223044 0.984642 -5.171993 0.819660 85.473783 -3.080001 -1.008072 3.505427 -11.170670 -6.190148 51.139809 -4.756867 3.759552 0.561174 0.000000 -0.000000 0.000000 6.316602 3.889174 -18.109574 0.476269 -2.834769 28.882128 -0.929959 -6.965022 -11.407121 0.000000 -0.000000 0.000000 0.838924 -5.618359 9.710383 2.438397 -4.714616 0.802100 -1.756830 -5.649555 0.742783 -4.594723 -12.674358 -12.295598 1.390085 -13.774736 -11.957144 -27.682597 5.985840 2.916156 -51.898805 -6.851540 12.072689 11.771610 -44.372396 0.742855 15.349517 -22.584254 -28.183257 27.147919 -2.746337 -3.500137 54.895627 -6.116934 13.491511 -11.381333 23.265408 -2.709503 -3.792108 10.194703 -6.887190 
0.072102 0.191366 0.985972 -6.596049 0.667514 84.683598 -2.293052 -1.082967 -0.709905 -8.412276 -1.391869 55.810500 -2.199024 7.017802 -3.441021 0.000000 -0.000000 0.000000 6.893326 3.654041 -14.994614 0.404280 -1.579881 29.248324 -1.357506 -6.870666 -13.310385 0.000000 -0.000000 0.000000 0.827328 -4.275843 10.416492 2.326691 -4.552145 0.723340 -1.793509 -5.202725 1.079697 -4.509359 -13.307431 -12.420877 1.038216 -13.909630 -11.755524 -27.366705 5.750570 3.015313 -52.179599 -5.185144 11.452417 10.642127 -41.658853 2.955039 13.610524 -21.739836 -27.300389 26.685143 -2.218809 -3.481908 55.500299 -4.956415 13.785180 -11.759306 25.601633 -1.621595 -3.645398 10.772447 -7.753721 
0.068360 0.162316 0.987336 -7.813619 0.215290 84.093696 -1.644480 -1.638691 -5.310331 -6.201865 2.117248 58.221514 -0.150150 9.401087 -6.747034 0.000000 -0.000000 0.000000 7.059862 3.446840 -11.933316 0.297879 -0.234629 28.953797 -1.459399 -7.097980 -15.359313 0.000000 -0.000000 0.000000 0.348965 -2.970883 11.490325 2.254363 -4.684334 0.253772 -1.731967 -4.950524 1.386425 -4.334808 -13.103447 -12.743190 0.872386 -14.041787 -11.421790 -26.933899 5.912438 3.171976 -52.565703 -3.198585 10.897041 10.079597 -39.754171 4.656855 13.200899 -20.864775 -26.599420 26.384582 -1.874994 -3.387066 55.988785 -3.714783 14.177632 -12.295566 29.282918 -1.348308 -4.751869 10.603164 -8.397838 
